<?xml version="1.0" encoding="UTF-8" standalone="no"?>
<!DOCTYPE svg PUBLIC "-//W3C//DTD SVG 1.1//EN" "http://www.w3.org/Graphics/SVG/1.1/DTD/svg11.dtd">
<svg width="100%" height="100%" viewBox="0 0 356 357" version="1.1" xmlns="http://www.w3.org/2000/svg" xmlns:xlink="http://www.w3.org/1999/xlink" xml:space="preserve" xmlns:serif="http://www.serif.com/" style="fill-rule:evenodd;clip-rule:evenodd;stroke-linejoin:round;stroke-miterlimit:2;">
    <g transform="matrix(1,0,0,1,-480,-502)">
        <g transform="matrix(1.35688,0,0,1.35688,655.39,681.053)">
            <g transform="matrix(1,0,0,1,-128,-128)">
                <clipPath id="_clip1">
                    <rect x="0" y="0" width="256" height="256"/>
                </clipPath>
                <g clip-path="url(#_clip1)">
                    <g transform="matrix(25.898,0,0,-25.898,30.598,5.185)">
                        <path d="M0,0C-0.541,0 -0.98,-0.44 -0.98,-0.981L-0.98,-8.503C-0.98,-9.044 -0.541,-9.484 0,-9.484L7.521,-9.484C8.061,-9.484 8.5,-9.044 8.5,-8.503L8.5,-0.981C8.5,-0.44 8.061,0 7.521,0L0,0Z" style="fill:white;fill-rule:nonzero;"/>
                    </g>
                    <g transform="matrix(25.898,0,0,-25.898,225.39,0)">
                        <path d="M0,0L-7.521,0C-8.174,0 -8.703,-0.529 -8.703,-1.182L-8.703,-8.703C-8.703,-9.355 -8.174,-9.885 -7.521,-9.885L0,-9.885C0.652,-9.885 1.18,-9.355 1.18,-8.703L1.18,-1.182C1.18,-0.529 0.652,0 0,0M0.979,-8.703C0.979,-9.244 0.539,-9.685 0,-9.685L-7.521,-9.685C-8.063,-9.685 -8.502,-9.244 -8.502,-8.703L-8.502,-1.182C-8.502,-0.641 -8.063,-0.2 -7.521,-0.2L0,-0.2C0.539,-0.2 0.979,-0.641 0.979,-1.182L0.979,-8.703Z" style="fill:rgb(13,124,186);fill-rule:nonzero;"/>
                    </g>
                    <g transform="matrix(25.898,0,0,-25.898,181.1,214.82)">
                        <path d="M0,0L-0.12,0C-0.19,0.079 -0.216,0.178 -0.195,0.3C-0.16,0.501 -0.015,0.668 0.054,0.692L0.053,0.694C0.151,0.729 0.224,0.823 0.224,0.934L0.229,6.197C0.229,6.338 0.114,6.453 -0.026,6.454L-1.383,6.457C-1.382,6.705 -1.381,7.045 -1.381,7.045C-1.381,7.149 -1.442,7.242 -1.538,7.282C-1.634,7.322 -1.743,7.3 -1.817,7.228L-3.599,5.459C-3.912,5.148 -4.159,4.56 -4.16,4.118L-4.174,0.437C-4.175,-0.079 -3.757,-0.501 -3.24,-0.503L-0.001,-0.513C0.14,-0.513 0.255,-0.398 0.255,-0.258L0.255,-0.257C0.255,-0.115 0.142,-0.001 -0,-0M-0.284,5.942C-0.284,5.503 -0.288,1.63 -0.289,1.19L-3.208,1.19L-1.38,2.722L-1.384,5.944L-0.284,5.942M-3.662,0.435C-3.662,0.435 -3.661,0.647 -3.661,0.678L-0.604,0.678C-0.648,0.585 -0.683,0.487 -0.7,0.388C-0.724,0.251 -0.712,0.123 -0.681,0.002L-3.238,0.01C-3.472,0.01 -3.662,0.2 -3.662,0.435" style="fill:rgb(13,124,186);fill-rule:nonzero;"/>
                    </g>
                </g>
            </g>
        </g>
    </g>
</svg>
